<svg width="228" height="44" viewBox="0 0 228 44" fill="none" xmlns="http://www.w3.org/2000/svg">
<path d="M9.43466 14.4545H12.6591L16.9773 24.9943H17.1477L21.4659 14.4545H24.6903V29H22.1619V19.0071H22.027L18.0071 28.9574H16.1179L12.098 18.9858H11.9631V29H9.43466V14.4545ZM32.2756 29.2131C31.1818 29.2131 30.2372 28.9858 29.4418 28.5312C28.651 28.072 28.0426 27.4233 27.6165 26.5852C27.1903 25.7424 26.9773 24.7505 26.9773 23.6094C26.9773 22.4872 27.1903 21.5024 27.6165 20.6548C28.0473 19.8026 28.6487 19.1397 29.4205 18.6662C30.1922 18.188 31.099 17.9489 32.1406 17.9489C32.813 17.9489 33.4474 18.0578 34.044 18.2756C34.6454 18.4886 35.1757 18.8201 35.6349 19.2699C36.099 19.7197 36.4635 20.2926 36.7287 20.9886C36.9938 21.6799 37.1264 22.5038 37.1264 23.4602V24.2486H28.1847V22.5156H34.6619C34.6572 22.0232 34.5507 21.5852 34.3423 21.2017C34.134 20.8134 33.8428 20.508 33.4688 20.2855C33.0994 20.063 32.6686 19.9517 32.1761 19.9517C31.6506 19.9517 31.1889 20.0795 30.7912 20.3352C30.3935 20.5862 30.0833 20.9176 29.8608 21.3295C29.643 21.7367 29.5317 22.1842 29.527 22.6719V24.1847C29.527 24.8191 29.643 25.3636 29.875 25.8182C30.107 26.268 30.4313 26.6136 30.848 26.8551C31.2647 27.0919 31.7524 27.2102 32.3111 27.2102C32.6851 27.2102 33.0237 27.1581 33.3267 27.054C33.6297 26.9451 33.8925 26.7865 34.1151 26.5781C34.3376 26.3698 34.5057 26.1117 34.6193 25.804L37.0199 26.0739C36.8684 26.7083 36.5795 27.2623 36.1534 27.7358C35.732 28.2045 35.1922 28.5691 34.5341 28.8295C33.8759 29.0852 33.1231 29.2131 32.2756 29.2131ZM44.131 29.2131C43.0373 29.2131 42.0927 28.9858 41.2972 28.5312C40.5065 28.072 39.8981 27.4233 39.4719 26.5852C39.0458 25.7424 38.8327 24.7505 38.8327 23.6094C38.8327 22.4872 39.0458 21.5024 39.4719 20.6548C39.9028 19.8026 40.5041 19.1397 41.2759 18.6662C42.0477 18.188 42.9544 17.9489 43.9961 17.9489C44.6684 17.9489 45.3029 18.0578 45.8995 18.2756C46.5008 18.4886 47.0311 18.8201 47.4904 19.2699C47.9544 19.7197 48.319 20.2926 48.5842 20.9886C48.8493 21.6799 48.9819 22.5038 48.9819 23.4602V24.2486H40.0401V22.5156H46.5174C46.5127 22.0232 46.4061 21.5852 46.1978 21.2017C45.9895 20.8134 45.6983 20.508 45.3242 20.2855C44.9549 20.063 44.524 19.9517 44.0316 19.9517C43.506 19.9517 43.0444 20.0795 42.6467 20.3352C42.2489 20.5862 41.9388 20.9176 41.7163 21.3295C41.4985 21.7367 41.3872 22.1842 41.3825 22.6719V24.1847C41.3825 24.8191 41.4985 25.3636 41.7305 25.8182C41.9625 26.268 42.2868 26.6136 42.7035 26.8551C43.1201 27.0919 43.6078 27.2102 44.1665 27.2102C44.5406 27.2102 44.8791 27.1581 45.1822 27.054C45.4852 26.9451 45.748 26.7865 45.9705 26.5781C46.1931 26.3698 46.3612 26.1117 46.4748 25.804L48.8754 26.0739C48.7238 26.7083 48.435 27.2623 48.0089 27.7358C47.5875 28.2045 47.0477 28.5691 46.3896 28.8295C45.7314 29.0852 44.9786 29.2131 44.131 29.2131ZM56.6044 18.0909V20.0795H50.3331V18.0909H56.6044ZM51.8814 15.4773H54.4524V25.7188C54.4524 26.0644 54.5045 26.3295 54.6087 26.5142C54.7176 26.6941 54.8596 26.8172 55.0348 26.8835C55.21 26.9498 55.4041 26.983 55.6172 26.983C55.7782 26.983 55.925 26.9711 56.0575 26.9474C56.1948 26.9238 56.299 26.9025 56.37 26.8835L56.8033 28.8935C56.666 28.9408 56.4695 28.9929 56.2138 29.0497C55.9628 29.1065 55.6551 29.1397 55.2905 29.1491C54.6465 29.1681 54.0665 29.071 53.5504 28.858C53.0343 28.6402 52.6248 28.304 52.3217 27.8494C52.0234 27.3949 51.8767 26.8267 51.8814 26.1449V15.4773ZM66.8548 29.2202C66.1635 29.2202 65.5408 29.0971 64.9869 28.8509C64.4376 28.5999 64.002 28.2306 63.68 27.7429C63.3628 27.2552 63.2042 26.6539 63.2042 25.9389C63.2042 25.3234 63.3178 24.8144 63.5451 24.4119C63.7724 24.0095 64.0825 23.6875 64.4755 23.446C64.8685 23.2045 65.3112 23.0223 65.8036 22.8991C66.3008 22.7713 66.8145 22.679 67.3448 22.6222C67.984 22.5559 68.5025 22.4967 68.9002 22.4446C69.2979 22.3878 69.5868 22.3026 69.7667 22.1889C69.9513 22.0705 70.0437 21.8883 70.0437 21.642V21.5994C70.0437 21.0644 69.8851 20.6501 69.5678 20.3565C69.2506 20.063 68.7937 19.9162 68.1971 19.9162C67.5674 19.9162 67.0678 20.0535 66.6985 20.3281C66.3339 20.6027 66.0877 20.9271 65.9599 21.3011L63.5593 20.9602C63.7487 20.2973 64.0612 19.7434 64.4968 19.2983C64.9324 18.8485 65.4651 18.5123 66.0948 18.2898C66.7246 18.0625 67.4206 17.9489 68.1829 17.9489C68.7085 17.9489 69.2317 18.0104 69.7525 18.1335C70.2733 18.2566 70.7492 18.4602 71.18 18.7443C71.6109 19.0237 71.9566 19.4048 72.217 19.8878C72.4821 20.3707 72.6147 20.9744 72.6147 21.6989V29H70.1431V27.5014H70.0579C69.9016 27.8045 69.6815 28.0885 69.3974 28.3537C69.118 28.6141 68.7653 28.8248 68.3391 28.9858C67.9177 29.142 67.4229 29.2202 66.8548 29.2202ZM67.5224 27.331C68.0385 27.331 68.4859 27.2292 68.8647 27.0256C69.2435 26.8172 69.5347 26.5426 69.7383 26.2017C69.9466 25.8608 70.0508 25.4891 70.0508 25.0866V23.8011C69.9703 23.8674 69.833 23.929 69.6388 23.9858C69.4495 24.0426 69.2364 24.0923 68.9996 24.1349C68.7629 24.1776 68.5285 24.2154 68.2965 24.2486C68.0645 24.2817 67.8633 24.3101 67.6928 24.3338C67.3093 24.3859 66.966 24.4711 66.663 24.5895C66.36 24.7079 66.1209 24.8736 65.9457 25.0866C65.7705 25.295 65.6829 25.5649 65.6829 25.8963C65.6829 26.3698 65.8557 26.7273 66.2013 26.9688C66.547 27.2102 66.9873 27.331 67.5224 27.331ZM77.771 14.4545V29H75.1999V14.4545H77.771ZM82.9858 14.4545V29H80.4148V14.4545H82.9858ZM95.3491 29.2131C94.2601 29.2131 93.3249 28.974 92.5437 28.4957C91.7672 28.0175 91.1682 27.357 90.7468 26.5142C90.3301 25.6667 90.1218 24.6913 90.1218 23.5881C90.1218 22.4801 90.3349 21.5024 90.761 20.6548C91.1871 19.8026 91.7885 19.1397 92.565 18.6662C93.3462 18.188 94.2695 17.9489 95.3349 17.9489C96.2203 17.9489 97.0039 18.1122 97.6857 18.4389C98.3723 18.7609 98.9192 19.2178 99.3263 19.8097C99.7335 20.3968 99.9656 21.0833 100.022 21.8693H97.565C97.4656 21.3437 97.2288 20.9058 96.8548 20.5554C96.4854 20.2003 95.9906 20.0227 95.3704 20.0227C94.8448 20.0227 94.3832 20.1648 93.9854 20.4489C93.5877 20.7282 93.2776 21.1307 93.055 21.6562C92.8372 22.1818 92.7283 22.8116 92.7283 23.5455C92.7283 24.2888 92.8372 24.928 93.055 25.4631C93.2728 25.9934 93.5782 26.4029 93.9712 26.6918C94.369 26.9759 94.8353 27.1179 95.3704 27.1179C95.7492 27.1179 96.0877 27.0469 96.386 26.9048C96.689 26.758 96.9424 26.5473 97.146 26.2727C97.3496 25.9981 97.4892 25.6643 97.565 25.2713H100.022C99.9608 26.0431 99.7335 26.7273 99.3406 27.3239C98.9476 27.9157 98.4125 28.3797 97.7354 28.7159C97.0584 29.0473 96.2629 29.2131 95.3491 29.2131ZM109.087 24.4119V18.0909H111.658V29H109.165V27.0611H109.051C108.805 27.6719 108.4 28.1714 107.837 28.5597C107.278 28.9479 106.589 29.142 105.77 29.142C105.055 29.142 104.423 28.9834 103.874 28.6662C103.329 28.3442 102.903 27.8778 102.595 27.267C102.287 26.6515 102.134 25.9081 102.134 25.0369V18.0909H104.705V24.6392C104.705 25.3305 104.894 25.8797 105.273 26.2869C105.652 26.6941 106.149 26.8977 106.764 26.8977C107.143 26.8977 107.51 26.8054 107.865 26.6207C108.22 26.4361 108.511 26.1615 108.739 25.7969C108.971 25.4276 109.087 24.9659 109.087 24.4119ZM122.924 20.9744L120.58 21.2301C120.514 20.9934 120.398 20.7708 120.232 20.5625C120.071 20.3542 119.853 20.1861 119.578 20.0582C119.304 19.9304 118.968 19.8665 118.57 19.8665C118.035 19.8665 117.585 19.9825 117.221 20.2145C116.861 20.4465 116.683 20.7472 116.688 21.1165C116.683 21.4337 116.799 21.6918 117.036 21.8906C117.277 22.0895 117.675 22.2528 118.229 22.3807L120.09 22.7784C121.122 23.0009 121.889 23.3537 122.391 23.8366C122.898 24.3196 123.153 24.9517 123.158 25.733C123.153 26.4195 122.952 27.0256 122.554 27.5511C122.161 28.072 121.614 28.4792 120.914 28.7727C120.213 29.0663 119.408 29.2131 118.499 29.2131C117.164 29.2131 116.089 28.9337 115.275 28.375C114.46 27.8116 113.975 27.0279 113.819 26.0241L116.326 25.7827C116.439 26.2751 116.681 26.6468 117.05 26.8977C117.419 27.1487 117.9 27.2741 118.492 27.2741C119.103 27.2741 119.593 27.1487 119.962 26.8977C120.336 26.6468 120.523 26.3366 120.523 25.9673C120.523 25.6548 120.402 25.3968 120.161 25.1932C119.924 24.9896 119.555 24.8333 119.053 24.7244L117.192 24.3338C116.146 24.116 115.372 23.7491 114.87 23.233C114.368 22.7121 114.119 22.054 114.124 21.2585C114.119 20.5862 114.301 20.0038 114.671 19.5114C115.045 19.0142 115.563 18.6307 116.226 18.3608C116.894 18.0862 117.663 17.9489 118.534 17.9489C119.813 17.9489 120.819 18.2211 121.553 18.7656C122.292 19.3101 122.748 20.0464 122.924 20.9744ZM130.725 18.0909V20.0795H124.454V18.0909H130.725ZM126.002 15.4773H128.574V25.7188C128.574 26.0644 128.626 26.3295 128.73 26.5142C128.839 26.6941 128.981 26.8172 129.156 26.8835C129.331 26.9498 129.525 26.983 129.738 26.983C129.899 26.983 130.046 26.9711 130.179 26.9474C130.316 26.9238 130.42 26.9025 130.491 26.8835L130.924 28.8935C130.787 28.9408 130.591 28.9929 130.335 29.0497C130.084 29.1065 129.776 29.1397 129.412 29.1491C128.768 29.1681 128.188 29.071 127.672 28.858C127.155 28.6402 126.746 28.304 126.443 27.8494C126.145 27.3949 125.998 26.8267 126.002 26.1449V15.4773ZM137.517 29.2131C136.452 29.2131 135.528 28.9787 134.747 28.5099C133.966 28.0412 133.36 27.3854 132.929 26.5426C132.503 25.6998 132.29 24.715 132.29 23.5881C132.29 22.4612 132.503 21.474 132.929 20.6264C133.36 19.7789 133.966 19.1207 134.747 18.652C135.528 18.1832 136.452 17.9489 137.517 17.9489C138.582 17.9489 139.506 18.1832 140.287 18.652C141.068 19.1207 141.672 19.7789 142.098 20.6264C142.529 21.474 142.744 22.4612 142.744 23.5881C142.744 24.715 142.529 25.6998 142.098 26.5426C141.672 27.3854 141.068 28.0412 140.287 28.5099C139.506 28.9787 138.582 29.2131 137.517 29.2131ZM137.531 27.1534C138.109 27.1534 138.592 26.9948 138.98 26.6776C139.368 26.3556 139.657 25.9247 139.847 25.3849C140.041 24.8452 140.138 24.2438 140.138 23.581C140.138 22.9134 140.041 22.3097 139.847 21.7699C139.657 21.2254 139.368 20.7921 138.98 20.4702C138.592 20.1482 138.109 19.9872 137.531 19.9872C136.939 19.9872 136.447 20.1482 136.054 20.4702C135.666 20.7921 135.375 21.2254 135.18 21.7699C134.991 22.3097 134.896 22.9134 134.896 23.581C134.896 24.2438 134.991 24.8452 135.18 25.3849C135.375 25.9247 135.666 26.3556 136.054 26.6776C136.447 26.9948 136.939 27.1534 137.531 27.1534ZM144.926 29V18.0909H147.384V19.9446H147.512C147.739 19.3196 148.115 18.8319 148.641 18.4815C149.167 18.1264 149.794 17.9489 150.523 17.9489C151.262 17.9489 151.884 18.1288 152.391 18.4886C152.902 18.8437 153.262 19.3291 153.471 19.9446H153.584C153.826 19.3385 154.233 18.8556 154.806 18.4957C155.383 18.1312 156.068 17.9489 156.858 17.9489C157.862 17.9489 158.681 18.2661 159.316 18.9006C159.95 19.535 160.267 20.4607 160.267 21.6776V29H157.689V22.0753C157.689 21.3982 157.509 20.9034 157.15 20.5909C156.79 20.2737 156.349 20.1151 155.828 20.1151C155.208 20.1151 154.723 20.3092 154.373 20.6974C154.027 21.081 153.854 21.5805 153.854 22.196V29H151.333V21.9688C151.333 21.4053 151.162 20.9555 150.821 20.6193C150.485 20.2831 150.045 20.1151 149.5 20.1151C149.131 20.1151 148.795 20.2098 148.492 20.3991C148.189 20.5838 147.947 20.8466 147.767 21.1875C147.587 21.5237 147.498 21.9167 147.498 22.3665V29H144.926ZM167.705 29.2131C166.612 29.2131 165.667 28.9858 164.871 28.5312C164.081 28.072 163.472 27.4233 163.046 26.5852C162.62 25.7424 162.407 24.7505 162.407 23.6094C162.407 22.4872 162.62 21.5024 163.046 20.6548C163.477 19.8026 164.078 19.1397 164.85 18.6662C165.622 18.188 166.529 17.9489 167.57 17.9489C168.243 17.9489 168.877 18.0578 169.474 18.2756C170.075 18.4886 170.605 18.8201 171.065 19.2699C171.529 19.7197 171.893 20.2926 172.158 20.9886C172.424 21.6799 172.556 22.5038 172.556 23.4602V24.2486H163.614V22.5156H170.092C170.087 22.0232 169.98 21.5852 169.772 21.2017C169.564 20.8134 169.272 20.508 168.898 20.2855C168.529 20.063 168.098 19.9517 167.606 19.9517C167.08 19.9517 166.619 20.0795 166.221 20.3352C165.823 20.5862 165.513 20.9176 165.29 21.3295C165.073 21.7367 164.961 22.1842 164.957 22.6719V24.1847C164.957 24.8191 165.073 25.3636 165.305 25.8182C165.537 26.268 165.861 26.6136 166.278 26.8551C166.694 27.0919 167.182 27.2102 167.741 27.2102C168.115 27.2102 168.453 27.1581 168.756 27.054C169.059 26.9451 169.322 26.7865 169.545 26.5781C169.767 26.3698 169.935 26.1117 170.049 25.804L172.45 26.0739C172.298 26.7083 172.009 27.2623 171.583 27.7358C171.162 28.2045 170.622 28.5691 169.964 28.8295C169.306 29.0852 168.553 29.2131 167.705 29.2131ZM174.731 29V18.0909H177.224V19.9091H177.338C177.537 19.2794 177.877 18.794 178.36 18.4531C178.848 18.1075 179.404 17.9347 180.029 17.9347C180.172 17.9347 180.33 17.9418 180.505 17.956C180.685 17.9654 180.834 17.982 180.953 18.0057V20.3707C180.844 20.3329 180.671 20.2997 180.434 20.2713C180.202 20.2382 179.977 20.2216 179.76 20.2216C179.291 20.2216 178.869 20.3234 178.495 20.527C178.126 20.7259 177.835 21.0028 177.622 21.358C177.409 21.7131 177.302 22.1226 177.302 22.5866V29H174.731ZM191.283 20.9744L188.939 21.2301C188.873 20.9934 188.757 20.7708 188.591 20.5625C188.43 20.3542 188.212 20.1861 187.938 20.0582C187.663 19.9304 187.327 19.8665 186.929 19.8665C186.394 19.8665 185.944 19.9825 185.58 20.2145C185.22 20.4465 185.042 20.7472 185.047 21.1165C185.042 21.4337 185.158 21.6918 185.395 21.8906C185.637 22.0895 186.034 22.2528 186.588 22.3807L188.449 22.7784C189.481 23.0009 190.248 23.3537 190.75 23.8366C191.257 24.3196 191.513 24.9517 191.517 25.733C191.513 26.4195 191.311 27.0256 190.914 27.5511C190.521 28.072 189.974 28.4792 189.273 28.7727C188.572 29.0663 187.767 29.2131 186.858 29.2131C185.523 29.2131 184.448 28.9337 183.634 28.375C182.819 27.8116 182.334 27.0279 182.178 26.0241L184.685 25.7827C184.799 26.2751 185.04 26.6468 185.409 26.8977C185.779 27.1487 186.259 27.2741 186.851 27.2741C187.462 27.2741 187.952 27.1487 188.321 26.8977C188.695 26.6468 188.882 26.3366 188.882 25.9673C188.882 25.6548 188.762 25.3968 188.52 25.1932C188.283 24.9896 187.914 24.8333 187.412 24.7244L185.551 24.3338C184.505 24.116 183.731 23.7491 183.229 23.233C182.727 22.7121 182.479 22.054 182.483 21.2585C182.479 20.5862 182.661 20.0038 183.03 19.5114C183.404 19.0142 183.923 18.6307 184.586 18.3608C185.253 18.0862 186.023 17.9489 186.894 17.9489C188.172 17.9489 189.178 18.2211 189.912 18.7656C190.651 19.3101 191.108 20.0464 191.283 20.9744Z" fill="#4CAF4F"/>
<path d="M220 26L223.293 22.7071C223.683 22.3166 223.683 21.6834 223.293 21.2929L220 18M223 22L209 22" stroke="#4CAF4F" stroke-width="1.5" stroke-linecap="round"/>
</svg>
